<svg width="22" height="18" viewBox="0 0 17 18" fill="none" xmlns="http://www.w3.org/2000/svg">
<path d="M15.274 0.529108C15.1121 0.475135 14.8962 0.421161 14.7343 0.367188H14.2485C14.2485 0.367188 14.2485 0.367188 14.1946 0.367188C13.6548 0.421161 13.223 0.691029 12.8452 1.12282C10.4164 3.76752 7.98759 6.4662 5.55878 9.11091C5.45083 9.21886 5.39686 9.3268 5.34288 9.48872C5.07302 10.3523 4.80315 11.1619 4.47931 12.0255C4.37136 12.4033 4.37136 12.7271 4.64123 13.051C4.96507 13.4288 5.39686 13.4828 5.82865 13.3208C6.63825 12.997 7.39388 12.6192 8.20348 12.2953C8.3654 12.2414 8.52732 12.0795 8.68925 11.9715C10.2545 10.2983 11.8197 8.57117 13.331 6.89799C14.1946 5.92647 15.1121 4.95494 15.9757 3.98342C17.0012 2.796 16.6234 1.06884 15.274 0.529108ZM6.15249 11.5937C6.31441 11.054 6.5303 10.5142 6.69222 9.97449C7.01606 10.2983 7.33991 10.5682 7.71772 10.892C7.17799 11.1619 6.69222 11.3778 6.15249 11.5937ZM15.0042 2.90395C14.8422 3.11984 14.6263 3.33573 14.4104 3.55163C12.5214 5.60262 10.6323 7.65362 8.79719 9.70462C8.74322 9.75859 8.68925 9.81256 8.68925 9.86654C8.3654 9.5427 8.04156 9.27283 7.71772 8.94899C8.31143 8.3013 8.90514 7.65362 9.49885 7.00594C10.9561 5.38673 12.4134 3.8215 13.8707 2.20229C13.9247 2.14832 13.9787 2.04037 14.0866 1.9864C14.3565 1.71653 14.7343 1.71653 15.0042 1.9864C15.274 2.25626 15.22 2.63408 15.0042 2.90395Z" fill="#009291"/>
<path d="M15.1663 13.7541C15.1663 14.9955 14.6266 15.967 13.5471 16.6147C13.0074 16.9385 12.4677 17.0465 11.8739 17.0465H7.55606C6.15275 17.0465 4.69546 17.0465 3.29215 17.0465C1.88883 17.0465 0.863333 16.3988 0.269624 15.1034C0.0537295 14.6716 -0.000244141 14.1859 -0.000244141 13.7541C-0.000244141 10.8935 -0.000244141 8.03287 -0.000244141 5.17227C-0.000244141 3.60704 1.02525 2.31167 2.59049 1.98783C2.86036 1.93386 3.13022 1.87988 3.40009 1.87988C5.45109 1.87988 7.44811 1.87988 9.49911 1.87988C10.0388 1.87988 10.3627 2.20372 10.3087 2.63551C10.3087 2.95935 10.0388 3.2832 9.66103 3.2832C9.55308 3.2832 9.49911 3.2832 9.39116 3.2832H3.29215C2.48254 3.2832 1.88883 3.60704 1.56499 4.36267C1.45704 4.63254 1.40307 4.9024 1.40307 5.17227C1.40307 8.03287 1.40307 10.8935 1.40307 13.7541C1.40307 14.8335 2.21267 15.5892 3.23817 15.5892C6.09877 15.5892 9.01335 15.5892 11.8739 15.5892C12.9534 15.5892 13.709 14.7796 13.709 13.7541C13.709 11.757 13.709 9.76003 13.709 7.763C13.709 7.38519 13.871 7.11532 14.1948 7.00737C14.6266 6.84545 15.0584 7.16929 15.1663 7.60108C15.1663 7.65506 15.1663 7.70903 15.1663 7.763C15.1663 9.814 15.1663 11.757 15.1663 13.7541Z" fill="#009291"/>
</svg>
